<svg xmlns="http://www.w3.org/2000/svg" xmlns:xlink="http://www.w3.org/1999/xlink" width="1024" zoomAndPan="magnify" viewBox="0 0 768 767.999994" height="1024" preserveAspectRatio="xMidYMid meet" version="1.2"><defs/><g id="2af85492d0"><rect x="0" width="768" y="0" height="767.999994" style="fill:#ffffff;fill-opacity:1;stroke:none;"/><rect x="0" width="768" y="0" height="767.999994" style="fill:#ff3131;fill-opacity:1;stroke:none;"/><g style="fill:#ffffff;fill-opacity:1;"><g transform="translate(186.956245, 647.999988)"><path style="stroke:none" d="M 349.457031 0 L 349.457031 -291.988281 L 376.230469 -291.988281 L 376.230469 -265.21875 L 111.011719 -265.21875 L 111.011719 -393.722656 L 376.230469 -393.722656 L 376.230469 -366.949219 L 349.457031 -366.949219 L 349.457031 -476.179688 L 376.230469 -476.179688 L 376.230469 -449.40625 L 18.5625 -449.40625 L 18.5625 -476.179688 L 45.332031 -476.179688 L 45.332031 -187.042969 L 18.5625 -187.042969 L 18.5625 -213.816406 L 283.78125 -213.816406 L 283.78125 -81.742188 L 18.5625 -81.742188 L 18.5625 -108.515625 L 45.332031 -108.515625 L 45.332031 0 L 18.5625 0 L 18.5625 -26.773438 L 376.230469 -26.773438 L 376.230469 0 Z M 403.003906 26.773438 L -8.210938 26.773438 L -8.210938 -135.285156 L 257.007812 -135.285156 L 257.007812 -108.515625 L 230.234375 -108.515625 L 230.234375 -187.042969 L 257.007812 -187.042969 L 257.007812 -160.273438 L -8.210938 -160.273438 L -8.210938 -502.949219 L 403.003906 -502.949219 L 403.003906 -340.179688 L 137.785156 -340.179688 L 137.785156 -366.949219 L 164.554688 -366.949219 L 164.554688 -291.988281 L 137.785156 -291.988281 L 137.785156 -318.761719 L 403.003906 -318.761719 Z M 403.003906 26.773438 "/></g></g><g style="fill:#ff3131;fill-opacity:1;"><g transform="translate(186.956245, 647.999988)"><path style="stroke:none" d="M 376.230469 0 L 376.230469 -291.988281 L 137.785156 -291.988281 L 137.785156 -366.949219 L 376.230469 -366.949219 L 376.230469 -476.179688 L 18.5625 -476.179688 L 18.5625 -187.042969 L 257.007812 -187.042969 L 257.007812 -108.515625 L 18.5625 -108.515625 L 18.5625 0 Z M 376.230469 0 "/></g></g></g></svg>